<mxfile host="app.diagrams.net" modified="2021-12-29T08:22:06.609Z" agent="5.0 (Windows NT 10.0; Win64; x64) AppleWebKit/537.36 (KHTML, like Gecko) Chrome/92.0.4515.159 Safari/537.36" etag="0pVxYaeRJIe9HSNzBOox" version="16.1.0" type="github">
  <diagram id="i8eQaSQ3ZctLGV6-Rtwk" name="Page-1">
    <mxGraphModel dx="1209" dy="1768" grid="1" gridSize="10" guides="1" tooltips="1" connect="1" arrows="1" fold="1" page="1" pageScale="1" pageWidth="827" pageHeight="1169" math="0" shadow="0">
      <root>
        <mxCell id="0" />
        <mxCell id="1" parent="0" />
        <mxCell id="jQ_WwC3jhZDaYOG-kKFm-28" value="" style="shape=table;html=1;whiteSpace=wrap;startSize=0;container=1;collapsible=0;childLayout=tableLayout;shadow=0;fontColor=#7D868C;strokeColor=#7D868C;" parent="1" vertex="1">
          <mxGeometry x="90" y="-700" width="1310" height="187" as="geometry" />
        </mxCell>
        <mxCell id="jQ_WwC3jhZDaYOG-kKFm-29" value="" style="shape=partialRectangle;html=1;whiteSpace=wrap;collapsible=0;dropTarget=0;pointerEvents=0;fillColor=none;top=0;left=0;bottom=0;right=0;points=[[0,0.5],[1,0.5]];portConstraint=eastwest;shadow=0;" parent="jQ_WwC3jhZDaYOG-kKFm-28" vertex="1">
          <mxGeometry width="1310" height="40" as="geometry" />
        </mxCell>
        <mxCell id="jQ_WwC3jhZDaYOG-kKFm-70" value="是否选择" style="shape=partialRectangle;html=1;whiteSpace=wrap;connectable=0;fillColor=none;top=0;left=0;bottom=0;right=0;overflow=hidden;pointerEvents=1;shadow=0;fontColor=#7D868C;" parent="jQ_WwC3jhZDaYOG-kKFm-29" vertex="1">
          <mxGeometry width="70" height="40" as="geometry">
            <mxRectangle width="70" height="40" as="alternateBounds" />
          </mxGeometry>
        </mxCell>
        <mxCell id="jQ_WwC3jhZDaYOG-kKFm-30" value="序号" style="shape=partialRectangle;html=1;whiteSpace=wrap;connectable=0;fillColor=none;top=0;left=0;bottom=0;right=0;overflow=hidden;pointerEvents=1;shadow=0;fontColor=#7D868C;" parent="jQ_WwC3jhZDaYOG-kKFm-29" vertex="1">
          <mxGeometry x="70" width="70" height="40" as="geometry">
            <mxRectangle width="70" height="40" as="alternateBounds" />
          </mxGeometry>
        </mxCell>
        <mxCell id="jQ_WwC3jhZDaYOG-kKFm-31" value="组织名称" style="shape=partialRectangle;html=1;whiteSpace=wrap;connectable=0;fillColor=none;top=0;left=0;bottom=0;right=0;overflow=hidden;pointerEvents=1;shadow=0;fontColor=#7D868C;" parent="jQ_WwC3jhZDaYOG-kKFm-29" vertex="1">
          <mxGeometry x="140" width="130" height="40" as="geometry">
            <mxRectangle width="130" height="40" as="alternateBounds" />
          </mxGeometry>
        </mxCell>
        <mxCell id="jQ_WwC3jhZDaYOG-kKFm-32" value="使用者" style="shape=partialRectangle;html=1;whiteSpace=wrap;connectable=0;fillColor=none;top=0;left=0;bottom=0;right=0;overflow=hidden;pointerEvents=1;shadow=0;fontColor=#7D868C;" parent="jQ_WwC3jhZDaYOG-kKFm-29" vertex="1">
          <mxGeometry x="270" width="100" height="40" as="geometry">
            <mxRectangle width="100" height="40" as="alternateBounds" />
          </mxGeometry>
        </mxCell>
        <mxCell id="jQ_WwC3jhZDaYOG-kKFm-54" value="mac地址" style="shape=partialRectangle;html=1;whiteSpace=wrap;connectable=0;fillColor=none;top=0;left=0;bottom=0;right=0;overflow=hidden;pointerEvents=1;shadow=0;fontColor=#7D868C;" parent="jQ_WwC3jhZDaYOG-kKFm-29" vertex="1">
          <mxGeometry x="370" width="110" height="40" as="geometry">
            <mxRectangle width="110" height="40" as="alternateBounds" />
          </mxGeometry>
        </mxCell>
        <mxCell id="jQ_WwC3jhZDaYOG-kKFm-57" value="IP地址" style="shape=partialRectangle;html=1;whiteSpace=wrap;connectable=0;fillColor=none;top=0;left=0;bottom=0;right=0;overflow=hidden;pointerEvents=1;shadow=0;fontColor=#7D868C;" parent="jQ_WwC3jhZDaYOG-kKFm-29" vertex="1">
          <mxGeometry x="480" width="120" height="40" as="geometry">
            <mxRectangle width="120" height="40" as="alternateBounds" />
          </mxGeometry>
        </mxCell>
        <mxCell id="jQ_WwC3jhZDaYOG-kKFm-270" value="主板序列号" style="shape=partialRectangle;html=1;whiteSpace=wrap;connectable=0;fillColor=none;top=0;left=0;bottom=0;right=0;overflow=hidden;pointerEvents=1;shadow=0;fontColor=#7D868C;" parent="jQ_WwC3jhZDaYOG-kKFm-29" vertex="1">
          <mxGeometry x="600" width="160" height="40" as="geometry">
            <mxRectangle width="160" height="40" as="alternateBounds" />
          </mxGeometry>
        </mxCell>
        <mxCell id="jQ_WwC3jhZDaYOG-kKFm-273" value="客户端安装时间" style="shape=partialRectangle;html=1;whiteSpace=wrap;connectable=0;fillColor=none;top=0;left=0;bottom=0;right=0;overflow=hidden;pointerEvents=1;shadow=0;fontColor=#7D868C;" parent="jQ_WwC3jhZDaYOG-kKFm-29" vertex="1">
          <mxGeometry x="760" width="110" height="40" as="geometry">
            <mxRectangle width="110" height="40" as="alternateBounds" />
          </mxGeometry>
        </mxCell>
        <mxCell id="jQ_WwC3jhZDaYOG-kKFm-60" value="是否授权" style="shape=partialRectangle;html=1;whiteSpace=wrap;connectable=0;fillColor=none;top=0;left=0;bottom=0;right=0;overflow=hidden;pointerEvents=1;shadow=0;fontColor=#7D868C;" parent="jQ_WwC3jhZDaYOG-kKFm-29" vertex="1">
          <mxGeometry x="870" width="70" height="40" as="geometry">
            <mxRectangle width="70" height="40" as="alternateBounds" />
          </mxGeometry>
        </mxCell>
        <mxCell id="jQ_WwC3jhZDaYOG-kKFm-63" value="当前状态" style="shape=partialRectangle;html=1;whiteSpace=wrap;connectable=0;fillColor=none;top=0;left=0;bottom=0;right=0;overflow=hidden;pointerEvents=1;shadow=0;fontColor=#7D868C;" parent="jQ_WwC3jhZDaYOG-kKFm-29" vertex="1">
          <mxGeometry x="940" width="70" height="40" as="geometry">
            <mxRectangle width="70" height="40" as="alternateBounds" />
          </mxGeometry>
        </mxCell>
        <mxCell id="jQ_WwC3jhZDaYOG-kKFm-67" value="操作" style="shape=partialRectangle;html=1;whiteSpace=wrap;connectable=0;fillColor=none;top=0;left=0;bottom=0;right=0;overflow=hidden;pointerEvents=1;shadow=0;fontColor=#7D868C;" parent="jQ_WwC3jhZDaYOG-kKFm-29" vertex="1">
          <mxGeometry x="1010" width="300" height="40" as="geometry">
            <mxRectangle width="300" height="40" as="alternateBounds" />
          </mxGeometry>
        </mxCell>
        <mxCell id="jQ_WwC3jhZDaYOG-kKFm-33" value="" style="shape=partialRectangle;html=1;whiteSpace=wrap;collapsible=0;dropTarget=0;pointerEvents=0;fillColor=none;top=0;left=0;bottom=0;right=0;points=[[0,0.5],[1,0.5]];portConstraint=eastwest;shadow=0;fontColor=#7D868C;" parent="jQ_WwC3jhZDaYOG-kKFm-28" vertex="1">
          <mxGeometry y="40" width="1310" height="74" as="geometry" />
        </mxCell>
        <mxCell id="jQ_WwC3jhZDaYOG-kKFm-71" style="shape=partialRectangle;html=1;whiteSpace=wrap;connectable=0;fillColor=none;top=0;left=0;bottom=0;right=0;overflow=hidden;pointerEvents=1;shadow=0;" parent="jQ_WwC3jhZDaYOG-kKFm-33" vertex="1">
          <mxGeometry width="70" height="74" as="geometry">
            <mxRectangle width="70" height="74" as="alternateBounds" />
          </mxGeometry>
        </mxCell>
        <mxCell id="jQ_WwC3jhZDaYOG-kKFm-34" value="1" style="shape=partialRectangle;html=1;whiteSpace=wrap;connectable=0;fillColor=none;top=0;left=0;bottom=0;right=0;overflow=hidden;pointerEvents=1;shadow=0;" parent="jQ_WwC3jhZDaYOG-kKFm-33" vertex="1">
          <mxGeometry x="70" width="70" height="74" as="geometry">
            <mxRectangle width="70" height="74" as="alternateBounds" />
          </mxGeometry>
        </mxCell>
        <mxCell id="jQ_WwC3jhZDaYOG-kKFm-35" value="&lt;font color=&quot;#7d868c&quot;&gt;云上贵州组织部&lt;/font&gt;" style="shape=partialRectangle;html=1;whiteSpace=wrap;connectable=0;fillColor=none;top=0;left=0;bottom=0;right=0;overflow=hidden;pointerEvents=1;shadow=0;" parent="jQ_WwC3jhZDaYOG-kKFm-33" vertex="1">
          <mxGeometry x="140" width="130" height="74" as="geometry">
            <mxRectangle width="130" height="74" as="alternateBounds" />
          </mxGeometry>
        </mxCell>
        <mxCell id="jQ_WwC3jhZDaYOG-kKFm-36" value="&lt;font color=&quot;#7d868c&quot;&gt;李爱国&lt;/font&gt;" style="shape=partialRectangle;html=1;whiteSpace=wrap;connectable=0;fillColor=none;top=0;left=0;bottom=0;right=0;overflow=hidden;pointerEvents=1;shadow=0;" parent="jQ_WwC3jhZDaYOG-kKFm-33" vertex="1">
          <mxGeometry x="270" width="100" height="74" as="geometry">
            <mxRectangle width="100" height="74" as="alternateBounds" />
          </mxGeometry>
        </mxCell>
        <mxCell id="jQ_WwC3jhZDaYOG-kKFm-55" value="00-50-56-C0-00-01" style="shape=partialRectangle;html=1;whiteSpace=wrap;connectable=0;fillColor=none;top=0;left=0;bottom=0;right=0;overflow=hidden;pointerEvents=1;shadow=0;fontColor=#7D868C;" parent="jQ_WwC3jhZDaYOG-kKFm-33" vertex="1">
          <mxGeometry x="370" width="110" height="74" as="geometry">
            <mxRectangle width="110" height="74" as="alternateBounds" />
          </mxGeometry>
        </mxCell>
        <mxCell id="jQ_WwC3jhZDaYOG-kKFm-58" value="192.168.159.130" style="shape=partialRectangle;html=1;whiteSpace=wrap;connectable=0;fillColor=none;top=0;left=0;bottom=0;right=0;overflow=hidden;pointerEvents=1;shadow=0;fontColor=#7D868C;" parent="jQ_WwC3jhZDaYOG-kKFm-33" vertex="1">
          <mxGeometry x="480" width="120" height="74" as="geometry">
            <mxRectangle width="120" height="74" as="alternateBounds" />
          </mxGeometry>
        </mxCell>
        <mxCell id="jQ_WwC3jhZDaYOG-kKFm-271" value="2102313LUUYPM6016486" style="shape=partialRectangle;html=1;whiteSpace=wrap;connectable=0;fillColor=none;top=0;left=0;bottom=0;right=0;overflow=hidden;pointerEvents=1;shadow=0;fontColor=#7D868C;" parent="jQ_WwC3jhZDaYOG-kKFm-33" vertex="1">
          <mxGeometry x="600" width="160" height="74" as="geometry">
            <mxRectangle width="160" height="74" as="alternateBounds" />
          </mxGeometry>
        </mxCell>
        <mxCell id="jQ_WwC3jhZDaYOG-kKFm-274" value="2021-12-29 12::12:12" style="shape=partialRectangle;html=1;whiteSpace=wrap;connectable=0;fillColor=none;top=0;left=0;bottom=0;right=0;overflow=hidden;pointerEvents=1;shadow=0;fontColor=#7D868C;" parent="jQ_WwC3jhZDaYOG-kKFm-33" vertex="1">
          <mxGeometry x="760" width="110" height="74" as="geometry">
            <mxRectangle width="110" height="74" as="alternateBounds" />
          </mxGeometry>
        </mxCell>
        <mxCell id="jQ_WwC3jhZDaYOG-kKFm-61" value="是" style="shape=partialRectangle;html=1;whiteSpace=wrap;connectable=0;fillColor=none;top=0;left=0;bottom=0;right=0;overflow=hidden;pointerEvents=1;shadow=0;fontColor=#7D868C;" parent="jQ_WwC3jhZDaYOG-kKFm-33" vertex="1">
          <mxGeometry x="870" width="70" height="74" as="geometry">
            <mxRectangle width="70" height="74" as="alternateBounds" />
          </mxGeometry>
        </mxCell>
        <mxCell id="jQ_WwC3jhZDaYOG-kKFm-64" value="在线" style="shape=partialRectangle;html=1;whiteSpace=wrap;connectable=0;fillColor=none;top=0;left=0;bottom=0;right=0;overflow=hidden;pointerEvents=1;shadow=0;fontColor=#7D868C;" parent="jQ_WwC3jhZDaYOG-kKFm-33" vertex="1">
          <mxGeometry x="940" width="70" height="74" as="geometry">
            <mxRectangle width="70" height="74" as="alternateBounds" />
          </mxGeometry>
        </mxCell>
        <mxCell id="jQ_WwC3jhZDaYOG-kKFm-68" value="&lt;font color=&quot;#7d868c&quot;&gt;&amp;nbsp;&amp;nbsp;&lt;/font&gt;&lt;u&gt;&lt;font color=&quot;#6666ff&quot;&gt;授权&lt;/font&gt;&lt;/u&gt;&lt;font color=&quot;#7d868c&quot;&gt;&amp;nbsp; &amp;nbsp;&lt;/font&gt;&lt;u&gt;&lt;font color=&quot;#6666ff&quot;&gt;取消授权&lt;/font&gt;&lt;/u&gt;&lt;font color=&quot;#7d868c&quot;&gt;&amp;nbsp; &amp;nbsp; &lt;/font&gt;&lt;u&gt;&lt;font color=&quot;#6666ff&quot;&gt;绑定组织&lt;/font&gt;&lt;/u&gt;&lt;font color=&quot;#7d868c&quot;&gt;&amp;nbsp; &amp;nbsp; &lt;/font&gt;&lt;u&gt;&lt;font color=&quot;#6666ff&quot;&gt;应用安装记录&lt;/font&gt;&lt;/u&gt;" style="shape=partialRectangle;html=1;whiteSpace=wrap;connectable=0;fillColor=none;top=0;left=0;bottom=0;right=0;overflow=hidden;pointerEvents=1;shadow=0;" parent="jQ_WwC3jhZDaYOG-kKFm-33" vertex="1">
          <mxGeometry x="1010" width="300" height="74" as="geometry">
            <mxRectangle width="300" height="74" as="alternateBounds" />
          </mxGeometry>
        </mxCell>
        <mxCell id="jQ_WwC3jhZDaYOG-kKFm-37" value="" style="shape=partialRectangle;html=1;whiteSpace=wrap;collapsible=0;dropTarget=0;pointerEvents=0;fillColor=none;top=0;left=0;bottom=0;right=0;points=[[0,0.5],[1,0.5]];portConstraint=eastwest;shadow=0;" parent="jQ_WwC3jhZDaYOG-kKFm-28" vertex="1">
          <mxGeometry y="114" width="1310" height="73" as="geometry" />
        </mxCell>
        <mxCell id="jQ_WwC3jhZDaYOG-kKFm-72" style="shape=partialRectangle;html=1;whiteSpace=wrap;connectable=0;fillColor=none;top=0;left=0;bottom=0;right=0;overflow=hidden;pointerEvents=1;shadow=0;" parent="jQ_WwC3jhZDaYOG-kKFm-37" vertex="1">
          <mxGeometry width="70" height="73" as="geometry">
            <mxRectangle width="70" height="73" as="alternateBounds" />
          </mxGeometry>
        </mxCell>
        <mxCell id="jQ_WwC3jhZDaYOG-kKFm-38" value="" style="shape=partialRectangle;html=1;whiteSpace=wrap;connectable=0;fillColor=none;top=0;left=0;bottom=0;right=0;overflow=hidden;pointerEvents=1;shadow=0;" parent="jQ_WwC3jhZDaYOG-kKFm-37" vertex="1">
          <mxGeometry x="70" width="70" height="73" as="geometry">
            <mxRectangle width="70" height="73" as="alternateBounds" />
          </mxGeometry>
        </mxCell>
        <mxCell id="jQ_WwC3jhZDaYOG-kKFm-39" value="" style="shape=partialRectangle;html=1;whiteSpace=wrap;connectable=0;fillColor=none;top=0;left=0;bottom=0;right=0;overflow=hidden;pointerEvents=1;shadow=0;" parent="jQ_WwC3jhZDaYOG-kKFm-37" vertex="1">
          <mxGeometry x="140" width="130" height="73" as="geometry">
            <mxRectangle width="130" height="73" as="alternateBounds" />
          </mxGeometry>
        </mxCell>
        <mxCell id="jQ_WwC3jhZDaYOG-kKFm-40" value="" style="shape=partialRectangle;html=1;whiteSpace=wrap;connectable=0;fillColor=none;top=0;left=0;bottom=0;right=0;overflow=hidden;pointerEvents=1;shadow=0;" parent="jQ_WwC3jhZDaYOG-kKFm-37" vertex="1">
          <mxGeometry x="270" width="100" height="73" as="geometry">
            <mxRectangle width="100" height="73" as="alternateBounds" />
          </mxGeometry>
        </mxCell>
        <mxCell id="jQ_WwC3jhZDaYOG-kKFm-56" style="shape=partialRectangle;html=1;whiteSpace=wrap;connectable=0;fillColor=none;top=0;left=0;bottom=0;right=0;overflow=hidden;pointerEvents=1;shadow=0;" parent="jQ_WwC3jhZDaYOG-kKFm-37" vertex="1">
          <mxGeometry x="370" width="110" height="73" as="geometry">
            <mxRectangle width="110" height="73" as="alternateBounds" />
          </mxGeometry>
        </mxCell>
        <mxCell id="jQ_WwC3jhZDaYOG-kKFm-59" style="shape=partialRectangle;html=1;whiteSpace=wrap;connectable=0;fillColor=none;top=0;left=0;bottom=0;right=0;overflow=hidden;pointerEvents=1;shadow=0;" parent="jQ_WwC3jhZDaYOG-kKFm-37" vertex="1">
          <mxGeometry x="480" width="120" height="73" as="geometry">
            <mxRectangle width="120" height="73" as="alternateBounds" />
          </mxGeometry>
        </mxCell>
        <mxCell id="jQ_WwC3jhZDaYOG-kKFm-272" style="shape=partialRectangle;html=1;whiteSpace=wrap;connectable=0;fillColor=none;top=0;left=0;bottom=0;right=0;overflow=hidden;pointerEvents=1;shadow=0;" parent="jQ_WwC3jhZDaYOG-kKFm-37" vertex="1">
          <mxGeometry x="600" width="160" height="73" as="geometry">
            <mxRectangle width="160" height="73" as="alternateBounds" />
          </mxGeometry>
        </mxCell>
        <mxCell id="jQ_WwC3jhZDaYOG-kKFm-275" style="shape=partialRectangle;html=1;whiteSpace=wrap;connectable=0;fillColor=none;top=0;left=0;bottom=0;right=0;overflow=hidden;pointerEvents=1;shadow=0;" parent="jQ_WwC3jhZDaYOG-kKFm-37" vertex="1">
          <mxGeometry x="760" width="110" height="73" as="geometry">
            <mxRectangle width="110" height="73" as="alternateBounds" />
          </mxGeometry>
        </mxCell>
        <mxCell id="jQ_WwC3jhZDaYOG-kKFm-62" style="shape=partialRectangle;html=1;whiteSpace=wrap;connectable=0;fillColor=none;top=0;left=0;bottom=0;right=0;overflow=hidden;pointerEvents=1;shadow=0;" parent="jQ_WwC3jhZDaYOG-kKFm-37" vertex="1">
          <mxGeometry x="870" width="70" height="73" as="geometry">
            <mxRectangle width="70" height="73" as="alternateBounds" />
          </mxGeometry>
        </mxCell>
        <mxCell id="jQ_WwC3jhZDaYOG-kKFm-65" style="shape=partialRectangle;html=1;whiteSpace=wrap;connectable=0;fillColor=none;top=0;left=0;bottom=0;right=0;overflow=hidden;pointerEvents=1;shadow=0;" parent="jQ_WwC3jhZDaYOG-kKFm-37" vertex="1">
          <mxGeometry x="940" width="70" height="73" as="geometry">
            <mxRectangle width="70" height="73" as="alternateBounds" />
          </mxGeometry>
        </mxCell>
        <mxCell id="jQ_WwC3jhZDaYOG-kKFm-69" style="shape=partialRectangle;html=1;whiteSpace=wrap;connectable=0;fillColor=none;top=0;left=0;bottom=0;right=0;overflow=hidden;pointerEvents=1;shadow=0;" parent="jQ_WwC3jhZDaYOG-kKFm-37" vertex="1">
          <mxGeometry x="1010" width="300" height="73" as="geometry">
            <mxRectangle width="300" height="73" as="alternateBounds" />
          </mxGeometry>
        </mxCell>
        <mxCell id="jQ_WwC3jhZDaYOG-kKFm-79" value="授权" style="rounded=1;fillColor=#E6D0DE;align=center;strokeColor=none;html=1;fontColor=#7D868C;fontSize=12;sketch=0;shadow=0;" parent="1" vertex="1">
          <mxGeometry x="90" y="-770" width="80" height="33" as="geometry" />
        </mxCell>
        <mxCell id="jQ_WwC3jhZDaYOG-kKFm-82" value="取消授权" style="rounded=1;fillColor=#E6D0DE;align=center;strokeColor=none;html=1;fontColor=#7D868C;fontSize=12;sketch=0;shadow=0;" parent="1" vertex="1">
          <mxGeometry x="195" y="-770" width="80" height="33" as="geometry" />
        </mxCell>
        <mxCell id="jQ_WwC3jhZDaYOG-kKFm-105" value="" style="html=1;shadow=0;dashed=0;shape=mxgraph.bootstrap.rrect;rSize=5;strokeColor=#CED4DA;html=1;whiteSpace=wrap;fillColor=#FFFFFF;fontColor=#7D868C;align=left;spacing=15;spacingLeft=40;fontSize=14;" parent="1" vertex="1">
          <mxGeometry x="90" y="-890" width="225" height="40" as="geometry" />
        </mxCell>
        <mxCell id="jQ_WwC3jhZDaYOG-kKFm-106" value="使用者" style="html=1;shadow=0;dashed=0;shape=mxgraph.bootstrap.leftButton;strokeColor=inherit;gradientColor=inherit;fontColor=inherit;fillColor=#E9ECEF;rSize=5;perimeter=none;whiteSpace=wrap;resizeHeight=1;fontSize=14;" parent="jQ_WwC3jhZDaYOG-kKFm-105" vertex="1">
          <mxGeometry width="52.94117647058823" height="40" as="geometry" />
        </mxCell>
        <mxCell id="jQ_WwC3jhZDaYOG-kKFm-119" value="Choose..." style="html=1;shadow=0;dashed=0;shape=mxgraph.bootstrap.rrect;rSize=5;strokeColor=#CED4DA;html=1;whiteSpace=wrap;fillColor=#FFFFFF;fontColor=#7D868C;align=left;spacingLeft=80;spacing=15;fontSize=14;" parent="1" vertex="1">
          <mxGeometry x="345" y="-890" width="220" height="40" as="geometry" />
        </mxCell>
        <mxCell id="jQ_WwC3jhZDaYOG-kKFm-120" value="" style="shape=triangle;direction=south;fillColor=#343A40;strokeColor=none;perimeter=none;shadow=0;" parent="jQ_WwC3jhZDaYOG-kKFm-119" vertex="1">
          <mxGeometry x="1" y="0.5" width="7" height="3" relative="1" as="geometry">
            <mxPoint x="-17" y="1" as="offset" />
          </mxGeometry>
        </mxCell>
        <mxCell id="jQ_WwC3jhZDaYOG-kKFm-121" value="" style="shape=triangle;direction=north;fillColor=#343A40;strokeColor=none;perimeter=none;shadow=0;" parent="jQ_WwC3jhZDaYOG-kKFm-119" vertex="1">
          <mxGeometry x="1" y="0.5" width="7" height="3" relative="1" as="geometry">
            <mxPoint x="-17" y="-4" as="offset" />
          </mxGeometry>
        </mxCell>
        <mxCell id="jQ_WwC3jhZDaYOG-kKFm-122" value="组织" style="html=1;shadow=0;dashed=0;shape=mxgraph.bootstrap.leftButton;strokeColor=#CED4DA;gradientColor=inherit;fontColor=inherit;fillColor=#E9ECEF;rSize=5;perimeter=none;whiteSpace=wrap;resizeHeight=1;fontSize=14;align=left;spacing=15;" parent="jQ_WwC3jhZDaYOG-kKFm-119" vertex="1">
          <mxGeometry width="80" height="40" relative="1" as="geometry" />
        </mxCell>
        <mxCell id="jQ_WwC3jhZDaYOG-kKFm-124" value="" style="html=1;shadow=0;dashed=0;shape=mxgraph.bootstrap.rrect;rSize=5;strokeColor=#CED4DA;html=1;whiteSpace=wrap;fillColor=#FFFFFF;fontColor=#7D868C;align=left;spacing=15;spacingLeft=40;fontSize=14;" parent="1" vertex="1">
          <mxGeometry x="595" y="-890" width="225" height="40" as="geometry" />
        </mxCell>
        <mxCell id="jQ_WwC3jhZDaYOG-kKFm-125" value="MAC地址" style="html=1;shadow=0;dashed=0;shape=mxgraph.bootstrap.leftButton;strokeColor=inherit;gradientColor=inherit;fontColor=inherit;fillColor=#E9ECEF;rSize=5;perimeter=none;whiteSpace=wrap;resizeHeight=1;fontSize=14;" parent="jQ_WwC3jhZDaYOG-kKFm-124" vertex="1">
          <mxGeometry width="80" height="40" as="geometry" />
        </mxCell>
        <mxCell id="jQ_WwC3jhZDaYOG-kKFm-128" value="" style="html=1;shadow=0;dashed=0;shape=mxgraph.bootstrap.rrect;rSize=5;strokeColor=#CED4DA;html=1;whiteSpace=wrap;fillColor=#FFFFFF;fontColor=#7D868C;align=left;spacing=15;spacingLeft=40;fontSize=14;" parent="1" vertex="1">
          <mxGeometry x="855" y="-890" width="360" height="40" as="geometry" />
        </mxCell>
        <mxCell id="jQ_WwC3jhZDaYOG-kKFm-129" value="IP段" style="html=1;shadow=0;dashed=0;shape=mxgraph.bootstrap.leftButton;strokeColor=inherit;gradientColor=inherit;fontColor=inherit;fillColor=#E9ECEF;rSize=5;perimeter=none;whiteSpace=wrap;resizeHeight=1;fontSize=14;" parent="jQ_WwC3jhZDaYOG-kKFm-128" vertex="1">
          <mxGeometry width="63" height="40" as="geometry" />
        </mxCell>
        <mxCell id="jQ_WwC3jhZDaYOG-kKFm-130" value="" style="html=1;shadow=0;dashed=0;shape=mxgraph.bootstrap.rightButton;strokeColor=inherit;gradientColor=inherit;fontColor=inherit;fillColor=none;rSize=5;perimeter=none;whiteSpace=wrap;resizeHeight=1;fontSize=14;" parent="jQ_WwC3jhZDaYOG-kKFm-128" vertex="1">
          <mxGeometry x="1" width="162" height="40" relative="1" as="geometry">
            <mxPoint x="-162" as="offset" />
          </mxGeometry>
        </mxCell>
        <mxCell id="jQ_WwC3jhZDaYOG-kKFm-137" value="Choose..." style="html=1;shadow=0;dashed=0;shape=mxgraph.bootstrap.rrect;rSize=5;strokeColor=#CED4DA;html=1;whiteSpace=wrap;fillColor=#FFFFFF;fontColor=#7D868C;align=left;spacingLeft=80;spacing=15;fontSize=14;" parent="1" vertex="1">
          <mxGeometry x="90" y="-830" width="220" height="40" as="geometry" />
        </mxCell>
        <mxCell id="jQ_WwC3jhZDaYOG-kKFm-138" value="" style="shape=triangle;direction=south;fillColor=#343A40;strokeColor=none;perimeter=none;shadow=0;" parent="jQ_WwC3jhZDaYOG-kKFm-137" vertex="1">
          <mxGeometry x="1" y="0.5" width="7" height="3" relative="1" as="geometry">
            <mxPoint x="-17" y="1" as="offset" />
          </mxGeometry>
        </mxCell>
        <mxCell id="jQ_WwC3jhZDaYOG-kKFm-139" value="" style="shape=triangle;direction=north;fillColor=#343A40;strokeColor=none;perimeter=none;shadow=0;" parent="jQ_WwC3jhZDaYOG-kKFm-137" vertex="1">
          <mxGeometry x="1" y="0.5" width="7" height="3" relative="1" as="geometry">
            <mxPoint x="-17" y="-4" as="offset" />
          </mxGeometry>
        </mxCell>
        <mxCell id="jQ_WwC3jhZDaYOG-kKFm-140" value="是否授权" style="html=1;shadow=0;dashed=0;shape=mxgraph.bootstrap.leftButton;strokeColor=#CED4DA;gradientColor=inherit;fontColor=inherit;fillColor=#E9ECEF;rSize=5;perimeter=none;whiteSpace=wrap;resizeHeight=1;fontSize=14;align=left;spacing=15;" parent="jQ_WwC3jhZDaYOG-kKFm-137" vertex="1">
          <mxGeometry width="90" height="40" relative="1" as="geometry" />
        </mxCell>
        <mxCell id="jQ_WwC3jhZDaYOG-kKFm-141" value="Choose..." style="html=1;shadow=0;dashed=0;shape=mxgraph.bootstrap.rrect;rSize=5;strokeColor=#CED4DA;html=1;whiteSpace=wrap;fillColor=#FFFFFF;fontColor=#7D868C;align=left;spacingLeft=80;spacing=15;fontSize=14;" parent="1" vertex="1">
          <mxGeometry x="345" y="-830" width="220" height="40" as="geometry" />
        </mxCell>
        <mxCell id="jQ_WwC3jhZDaYOG-kKFm-142" value="" style="shape=triangle;direction=south;fillColor=#343A40;strokeColor=none;perimeter=none;shadow=0;" parent="jQ_WwC3jhZDaYOG-kKFm-141" vertex="1">
          <mxGeometry x="1" y="0.5" width="7" height="3" relative="1" as="geometry">
            <mxPoint x="-17" y="1" as="offset" />
          </mxGeometry>
        </mxCell>
        <mxCell id="jQ_WwC3jhZDaYOG-kKFm-143" value="" style="shape=triangle;direction=north;fillColor=#343A40;strokeColor=none;perimeter=none;shadow=0;" parent="jQ_WwC3jhZDaYOG-kKFm-141" vertex="1">
          <mxGeometry x="1" y="0.5" width="7" height="3" relative="1" as="geometry">
            <mxPoint x="-17" y="-4" as="offset" />
          </mxGeometry>
        </mxCell>
        <mxCell id="jQ_WwC3jhZDaYOG-kKFm-144" value="当前状态" style="html=1;shadow=0;dashed=0;shape=mxgraph.bootstrap.leftButton;strokeColor=#CED4DA;gradientColor=inherit;fontColor=inherit;fillColor=#E9ECEF;rSize=5;perimeter=none;whiteSpace=wrap;resizeHeight=1;fontSize=14;align=left;spacing=15;" parent="jQ_WwC3jhZDaYOG-kKFm-141" vertex="1">
          <mxGeometry width="90" height="40" relative="1" as="geometry" />
        </mxCell>
        <mxCell id="jQ_WwC3jhZDaYOG-kKFm-145" value="查询" style="rounded=1;fillColor=#E6D0DE;align=center;strokeColor=none;html=1;fontColor=#7D868C;fontSize=12;sketch=0;shadow=0;" parent="1" vertex="1">
          <mxGeometry x="595" y="-826.5" width="80" height="33" as="geometry" />
        </mxCell>
        <mxCell id="jQ_WwC3jhZDaYOG-kKFm-147" value="绑定组织" style="rounded=1;fillColor=#E6D0DE;align=center;strokeColor=none;html=1;fontColor=#7D868C;fontSize=12;sketch=0;shadow=0;" parent="1" vertex="1">
          <mxGeometry x="300" y="-770" width="80" height="33" as="geometry" />
        </mxCell>
        <mxCell id="jQ_WwC3jhZDaYOG-kKFm-148" value="" style="rounded=1;fillColor=#F0F2F5;strokeColor=#D8DCE3;align=left;verticalAlign=middle;fontStyle=0;fontSize=12;labelPosition=right;verticalLabelPosition=middle;spacingLeft=10;html=1;shadow=0;dashed=0;fontColor=#7D868C;" parent="1" vertex="1">
          <mxGeometry x="119" y="-630" width="12" height="12" as="geometry" />
        </mxCell>
        <mxCell id="jQ_WwC3jhZDaYOG-kKFm-259" value="总授权点数：" style="text;html=1;strokeColor=none;fillColor=none;align=center;verticalAlign=middle;whiteSpace=wrap;rounded=0;shadow=0;fontColor=#7D868C;" parent="1" vertex="1">
          <mxGeometry x="720" y="-740" width="90" height="30" as="geometry" />
        </mxCell>
        <mxCell id="jQ_WwC3jhZDaYOG-kKFm-260" value="50000" style="text;html=1;strokeColor=none;fillColor=none;align=left;verticalAlign=middle;whiteSpace=wrap;rounded=0;shadow=0;fontColor=#7D868C;" parent="1" vertex="1">
          <mxGeometry x="810" y="-740" width="90" height="30" as="geometry" />
        </mxCell>
        <mxCell id="jQ_WwC3jhZDaYOG-kKFm-262" value="已用：" style="text;html=1;strokeColor=none;fillColor=none;align=center;verticalAlign=middle;whiteSpace=wrap;rounded=0;shadow=0;fontColor=#7D868C;" parent="1" vertex="1">
          <mxGeometry x="850" y="-740" width="70" height="30" as="geometry" />
        </mxCell>
        <mxCell id="jQ_WwC3jhZDaYOG-kKFm-263" value="20000" style="text;html=1;strokeColor=none;fillColor=none;align=left;verticalAlign=middle;whiteSpace=wrap;rounded=0;shadow=0;fontColor=#7D868C;" parent="1" vertex="1">
          <mxGeometry x="910" y="-740" width="90" height="30" as="geometry" />
        </mxCell>
        <mxCell id="XhAJ5l9qLyOH6jKQR6Y6-3" value="可用：" style="text;html=1;strokeColor=none;fillColor=none;align=center;verticalAlign=middle;whiteSpace=wrap;rounded=0;shadow=0;fontColor=#7D868C;" vertex="1" parent="1">
          <mxGeometry x="960" y="-740" width="70" height="30" as="geometry" />
        </mxCell>
        <mxCell id="XhAJ5l9qLyOH6jKQR6Y6-4" value="50000" style="text;html=1;strokeColor=none;fillColor=none;align=left;verticalAlign=middle;whiteSpace=wrap;rounded=0;shadow=0;fontColor=#7D868C;" vertex="1" parent="1">
          <mxGeometry x="1020" y="-740" width="90" height="30" as="geometry" />
        </mxCell>
        <mxCell id="XhAJ5l9qLyOH6jKQR6Y6-14" value="客户端总数：" style="text;html=1;strokeColor=none;fillColor=none;align=center;verticalAlign=middle;whiteSpace=wrap;rounded=0;shadow=0;fontColor=#7D868C;" vertex="1" parent="1">
          <mxGeometry x="720" y="-767" width="90" height="30" as="geometry" />
        </mxCell>
        <mxCell id="XhAJ5l9qLyOH6jKQR6Y6-15" value="50000" style="text;html=1;strokeColor=none;fillColor=none;align=left;verticalAlign=middle;whiteSpace=wrap;rounded=0;shadow=0;fontColor=#7D868C;" vertex="1" parent="1">
          <mxGeometry x="810" y="-767" width="90" height="30" as="geometry" />
        </mxCell>
        <mxCell id="XhAJ5l9qLyOH6jKQR6Y6-16" value="在线：" style="text;html=1;strokeColor=none;fillColor=none;align=center;verticalAlign=middle;whiteSpace=wrap;rounded=0;shadow=0;fontColor=#7D868C;" vertex="1" parent="1">
          <mxGeometry x="850" y="-767" width="70" height="30" as="geometry" />
        </mxCell>
        <mxCell id="XhAJ5l9qLyOH6jKQR6Y6-17" value="20000" style="text;html=1;strokeColor=none;fillColor=none;align=left;verticalAlign=middle;whiteSpace=wrap;rounded=0;shadow=0;fontColor=#7D868C;" vertex="1" parent="1">
          <mxGeometry x="910" y="-767" width="90" height="30" as="geometry" />
        </mxCell>
        <mxCell id="XhAJ5l9qLyOH6jKQR6Y6-18" value="离线：" style="text;html=1;strokeColor=none;fillColor=none;align=center;verticalAlign=middle;whiteSpace=wrap;rounded=0;shadow=0;fontColor=#7D868C;" vertex="1" parent="1">
          <mxGeometry x="960" y="-767" width="70" height="30" as="geometry" />
        </mxCell>
        <mxCell id="XhAJ5l9qLyOH6jKQR6Y6-19" value="50000" style="text;html=1;strokeColor=none;fillColor=none;align=left;verticalAlign=middle;whiteSpace=wrap;rounded=0;shadow=0;fontColor=#7D868C;" vertex="1" parent="1">
          <mxGeometry x="1020" y="-767" width="90" height="30" as="geometry" />
        </mxCell>
      </root>
    </mxGraphModel>
  </diagram>
</mxfile>
